<?xml version="1.0" encoding="UTF-8" standalone="no"?><!DOCTYPE svg PUBLIC "-//W3C//DTD SVG 1.1//EN" "http://www.w3.org/Graphics/SVG/1.1/DTD/svg11.dtd"><svg width="100%" height="100%" viewBox="0 0 512 512" version="1.1" xmlns="http://www.w3.org/2000/svg" xmlns:xlink="http://www.w3.org/1999/xlink" xml:space="preserve" xmlns:serif="http://www.serif.com/" style="fill-rule:evenodd;clip-rule:evenodd;stroke-linecap:round;stroke-linejoin:round;stroke-miterlimit:2;">
  <path d="M28.686,95.655c-10.95,6.405 -17.721,18.41 -17.686,31.357l0,333.529c0,0.038 0,0.077 0,0.116c0,19.73 15.799,35.965 35,35.965c5.72,-0 11.354,-1.441 16.406,-4.196c0.47,-0.259 0.93,-0.528 1.378,-0.832l92.028,-61.871c2.48,-1.662 3.977,-4.509 3.97,-7.552l0,-401.694c0,-0.008 0,-0.017 0,-0.025c0,-4.932 -3.95,-8.991 -8.75,-8.991c-1.76,-0 -3.479,0.545 -4.933,1.565l-117.413,82.629Zm179.582,-83.202c-1.419,-0.948 -3.076,-1.453 -4.769,-1.453c-4.793,0 -8.739,4.047 -8.75,8.972l0,401.862c-0.007,3.043 1.49,5.89 3.97,7.552l105,70.154c1.421,0.953 3.082,1.46 4.78,1.46c4.799,0 8.749,-4.058 8.75,-8.99l-0,-401.604c0.008,-3.049 -1.494,-5.902 -3.982,-7.563l-104.999,-70.39Zm275.809,8.047c-10.483,-6.593 -23.627,-6.97 -34.453,-0.989c-0.471,0.249 -0.928,0.526 -1.367,0.831l-92.038,61.815c-2.481,1.662 -3.978,4.51 -3.971,7.553l0,401.749c0,0.011 0,0.022 0,0.033c0,4.933 3.95,8.991 8.75,8.991c1.765,0 3.488,-0.548 4.944,-1.572l117.107,-82.562c11.085,-6.355 17.97,-18.426 17.949,-31.469l-0,-332.675c0.146,-12.868 -6.283,-24.914 -16.921,-31.705Z" style="fill:#0f344a;fill-rule:nonzero;stroke:#1795c1;stroke-width:20px;"/></svg>
